<mxfile host="app.diagrams.net" modified="2024-04-03T07:32:06.891Z" agent="Mozilla/5.0 (X11; Ubuntu; Linux x86_64; rv:124.0) Gecko/20100101 Firefox/124.0" etag="dJC1kgwlRKoyNMSLlz5L" version="24.2.1" type="github">
  <diagram name="Page-1" id="tACjYJwBTR3cCrOr_bKR">
    <mxGraphModel dx="1602" dy="795" grid="1" gridSize="10" guides="1" tooltips="1" connect="1" arrows="1" fold="1" page="1" pageScale="1" pageWidth="850" pageHeight="1100" math="0" shadow="0">
      <root>
        <mxCell id="0" />
        <mxCell id="1" parent="0" />
        <mxCell id="cPz8cNLMORRyYwhykM51-1" value="" style="edgeStyle=orthogonalEdgeStyle;rounded=0;orthogonalLoop=1;jettySize=auto;html=1;curved=0;strokeColor=default;jumpStyle=none;strokeWidth=1;endArrow=none;endFill=0;exitX=1;exitY=0.5;exitDx=0;exitDy=0;entryX=0.5;entryY=1;entryDx=0;entryDy=0;" edge="1" parent="1" source="cPz8cNLMORRyYwhykM51-12" target="cPz8cNLMORRyYwhykM51-18">
          <mxGeometry relative="1" as="geometry">
            <mxPoint x="640" y="329.74" as="sourcePoint" />
            <mxPoint x="620" y="377" as="targetPoint" />
          </mxGeometry>
        </mxCell>
        <mxCell id="cPz8cNLMORRyYwhykM51-2" value="구매자" style="shape=umlActor;verticalLabelPosition=bottom;verticalAlign=top;html=1;outlineConnect=0;" vertex="1" parent="1">
          <mxGeometry x="190" y="280" width="30" height="60" as="geometry" />
        </mxCell>
        <mxCell id="cPz8cNLMORRyYwhykM51-4" value="회원" style="shape=umlActor;verticalLabelPosition=bottom;verticalAlign=top;html=1;outlineConnect=0;" vertex="1" parent="1">
          <mxGeometry x="90" y="200" width="30" height="60" as="geometry" />
        </mxCell>
        <mxCell id="cPz8cNLMORRyYwhykM51-5" value="비회원" style="shape=umlActor;verticalLabelPosition=bottom;verticalAlign=top;html=1;outlineConnect=0;" vertex="1" parent="1">
          <mxGeometry x="90" y="390" width="30" height="60" as="geometry" />
        </mxCell>
        <mxCell id="cPz8cNLMORRyYwhykM51-6" value="&lt;div&gt;관리자&lt;/div&gt;&lt;div&gt;&lt;br&gt;&lt;/div&gt;" style="shape=umlActor;verticalLabelPosition=bottom;verticalAlign=top;html=1;outlineConnect=0;" vertex="1" parent="1">
          <mxGeometry x="690" y="210" width="30" height="60" as="geometry" />
        </mxCell>
        <mxCell id="cPz8cNLMORRyYwhykM51-11" value="구매" style="ellipse;whiteSpace=wrap;html=1;" vertex="1" parent="1">
          <mxGeometry x="350" y="320" width="80" height="40" as="geometry" />
        </mxCell>
        <mxCell id="cPz8cNLMORRyYwhykM51-15" value="회원관리" style="ellipse;whiteSpace=wrap;html=1;" vertex="1" parent="1">
          <mxGeometry x="490" y="210" width="80" height="40" as="geometry" />
        </mxCell>
        <mxCell id="cPz8cNLMORRyYwhykM51-18" value="&lt;p&gt;&amp;lt;&amp;lt;actor&amp;gt;&amp;gt;&lt;b&gt;&lt;br&gt;&lt;/b&gt;&lt;/p&gt;&lt;p&gt;&lt;b&gt;PG&lt;/b&gt;&lt;br&gt;&lt;/p&gt;" style="shape=rect;html=1;overflow=fill;whiteSpace=wrap;align=center;" vertex="1" parent="1">
          <mxGeometry x="650" y="340" width="110" height="60" as="geometry" />
        </mxCell>
        <mxCell id="cPz8cNLMORRyYwhykM51-20" value="" style="swimlane;startSize=0;" vertex="1" parent="1">
          <mxGeometry x="270" y="180" width="320" height="330" as="geometry" />
        </mxCell>
        <mxCell id="cPz8cNLMORRyYwhykM51-21" value="온라인 쇼핑" style="text;html=1;align=center;verticalAlign=middle;resizable=0;points=[];autosize=1;strokeColor=none;fillColor=none;" vertex="1" parent="cPz8cNLMORRyYwhykM51-20">
          <mxGeometry x="95" width="80" height="30" as="geometry" />
        </mxCell>
        <mxCell id="cPz8cNLMORRyYwhykM51-14" value="회원가입" style="ellipse;whiteSpace=wrap;html=1;" vertex="1" parent="cPz8cNLMORRyYwhykM51-20">
          <mxGeometry x="40" y="270" width="80" height="40" as="geometry" />
        </mxCell>
        <mxCell id="cPz8cNLMORRyYwhykM51-13" value="&lt;div&gt;주소입력&lt;/div&gt;" style="ellipse;whiteSpace=wrap;html=1;" vertex="1" parent="cPz8cNLMORRyYwhykM51-20">
          <mxGeometry x="210" y="270" width="80" height="40" as="geometry" />
        </mxCell>
        <mxCell id="cPz8cNLMORRyYwhykM51-12" value="결제" style="ellipse;whiteSpace=wrap;html=1;" vertex="1" parent="cPz8cNLMORRyYwhykM51-20">
          <mxGeometry x="95" y="200" width="80" height="40" as="geometry" />
        </mxCell>
        <mxCell id="cPz8cNLMORRyYwhykM51-34" value="&amp;lt;&amp;lt;extend&amp;gt;&amp;gt;" style="edgeStyle=none;html=1;startArrow=open;endArrow=none;startSize=12;verticalAlign=bottom;dashed=1;labelBackgroundColor=none;rounded=0;entryX=0.063;entryY=0.25;entryDx=0;entryDy=0;entryPerimeter=0;exitX=0.763;exitY=1.025;exitDx=0;exitDy=0;exitPerimeter=0;" edge="1" parent="cPz8cNLMORRyYwhykM51-20" source="cPz8cNLMORRyYwhykM51-12" target="cPz8cNLMORRyYwhykM51-13">
          <mxGeometry x="0.3008" y="-36" width="160" relative="1" as="geometry">
            <mxPoint x="70" y="170" as="sourcePoint" />
            <mxPoint x="230" y="170" as="targetPoint" />
            <mxPoint as="offset" />
          </mxGeometry>
        </mxCell>
        <mxCell id="cPz8cNLMORRyYwhykM51-7" value="상품 보기" style="ellipse;whiteSpace=wrap;html=1;" vertex="1" parent="cPz8cNLMORRyYwhykM51-20">
          <mxGeometry x="50" y="40" width="80" height="40" as="geometry" />
        </mxCell>
        <mxCell id="cPz8cNLMORRyYwhykM51-23" value="" style="edgeStyle=orthogonalEdgeStyle;rounded=0;orthogonalLoop=1;jettySize=auto;html=1;curved=0;strokeColor=default;jumpStyle=none;strokeWidth=1;endArrow=none;endFill=0;exitX=1;exitY=0.5;exitDx=0;exitDy=0;" edge="1" parent="1" source="cPz8cNLMORRyYwhykM51-15" target="cPz8cNLMORRyYwhykM51-6">
          <mxGeometry relative="1" as="geometry">
            <mxPoint x="410" y="400" as="sourcePoint" />
            <mxPoint x="480" y="310" as="targetPoint" />
            <Array as="points">
              <mxPoint x="665" y="230" />
              <mxPoint x="665" y="240" />
            </Array>
          </mxGeometry>
        </mxCell>
        <mxCell id="cPz8cNLMORRyYwhykM51-31" value="" style="edgeStyle=orthogonalEdgeStyle;rounded=0;orthogonalLoop=1;jettySize=auto;html=1;curved=0;strokeColor=default;jumpStyle=none;strokeWidth=1;endArrow=none;endFill=0;entryX=0;entryY=0.5;entryDx=0;entryDy=0;" edge="1" parent="1" source="cPz8cNLMORRyYwhykM51-5" target="cPz8cNLMORRyYwhykM51-14">
          <mxGeometry relative="1" as="geometry">
            <mxPoint x="240" y="420" as="sourcePoint" />
            <mxPoint x="249.75" y="410" as="targetPoint" />
          </mxGeometry>
        </mxCell>
        <mxCell id="cPz8cNLMORRyYwhykM51-33" value="" style="edgeStyle=orthogonalEdgeStyle;rounded=0;orthogonalLoop=1;jettySize=auto;html=1;curved=0;strokeColor=default;jumpStyle=none;strokeWidth=1;endArrow=none;endFill=0;entryX=0;entryY=0.5;entryDx=0;entryDy=0;exitX=1;exitY=0.3333333333333333;exitDx=0;exitDy=0;exitPerimeter=0;" edge="1" parent="1" source="cPz8cNLMORRyYwhykM51-5" target="cPz8cNLMORRyYwhykM51-7">
          <mxGeometry relative="1" as="geometry">
            <mxPoint x="410" y="400" as="sourcePoint" />
            <mxPoint x="480" y="310" as="targetPoint" />
          </mxGeometry>
        </mxCell>
        <mxCell id="cPz8cNLMORRyYwhykM51-39" value="&amp;lt;&amp;lt;include&amp;gt;&amp;gt;" style="html=1;verticalAlign=bottom;labelBackgroundColor=none;endArrow=open;endFill=0;dashed=1;rounded=0;entryX=0.5;entryY=1;entryDx=0;entryDy=0;exitX=0.5;exitY=0;exitDx=0;exitDy=0;" edge="1" parent="1" source="cPz8cNLMORRyYwhykM51-11" target="cPz8cNLMORRyYwhykM51-7">
          <mxGeometry width="160" relative="1" as="geometry">
            <mxPoint x="370" y="350" as="sourcePoint" />
            <mxPoint x="530" y="350" as="targetPoint" />
          </mxGeometry>
        </mxCell>
        <mxCell id="cPz8cNLMORRyYwhykM51-40" value="&amp;lt;&amp;lt;include&amp;gt;&amp;gt;" style="html=1;verticalAlign=bottom;labelBackgroundColor=none;endArrow=open;endFill=0;dashed=1;rounded=0;entryX=0.5;entryY=0;entryDx=0;entryDy=0;exitX=0.5;exitY=1;exitDx=0;exitDy=0;" edge="1" parent="1" source="cPz8cNLMORRyYwhykM51-11" target="cPz8cNLMORRyYwhykM51-12">
          <mxGeometry width="160" relative="1" as="geometry">
            <mxPoint x="400" y="330" as="sourcePoint" />
            <mxPoint x="400" y="300" as="targetPoint" />
          </mxGeometry>
        </mxCell>
        <mxCell id="cPz8cNLMORRyYwhykM51-27" value="" style="edgeStyle=orthogonalEdgeStyle;rounded=0;orthogonalLoop=1;jettySize=auto;html=1;curved=0;strokeColor=default;jumpStyle=none;strokeWidth=1;endArrow=none;endFill=0;entryX=0.3;entryY=0.025;entryDx=0;entryDy=0;entryPerimeter=0;exitX=1;exitY=0.3333333333333333;exitDx=0;exitDy=0;exitPerimeter=0;" edge="1" parent="1" source="cPz8cNLMORRyYwhykM51-4" target="cPz8cNLMORRyYwhykM51-7">
          <mxGeometry relative="1" as="geometry">
            <mxPoint x="210" y="220" as="sourcePoint" />
            <mxPoint x="330" y="260" as="targetPoint" />
          </mxGeometry>
        </mxCell>
        <mxCell id="cPz8cNLMORRyYwhykM51-41" value="" style="edgeStyle=orthogonalEdgeStyle;rounded=0;orthogonalLoop=1;jettySize=auto;html=1;curved=0;strokeColor=default;jumpStyle=none;strokeWidth=1;endArrow=none;endFill=0;entryX=0;entryY=0.5;entryDx=0;entryDy=0;" edge="1" parent="1" source="cPz8cNLMORRyYwhykM51-4" target="cPz8cNLMORRyYwhykM51-11">
          <mxGeometry relative="1" as="geometry">
            <mxPoint x="410" y="400" as="sourcePoint" />
            <mxPoint x="480" y="310" as="targetPoint" />
          </mxGeometry>
        </mxCell>
        <mxCell id="cPz8cNLMORRyYwhykM51-42" value="" style="endArrow=block;endSize=16;endFill=0;html=1;rounded=0;" edge="1" parent="1" source="cPz8cNLMORRyYwhykM51-5" target="cPz8cNLMORRyYwhykM51-2">
          <mxGeometry width="160" relative="1" as="geometry">
            <mxPoint x="85" y="520" as="sourcePoint" />
            <mxPoint x="245" y="520" as="targetPoint" />
          </mxGeometry>
        </mxCell>
        <mxCell id="cPz8cNLMORRyYwhykM51-44" value="" style="endArrow=block;endSize=16;endFill=0;html=1;rounded=0;entryX=0.5;entryY=0;entryDx=0;entryDy=0;entryPerimeter=0;" edge="1" parent="1" source="cPz8cNLMORRyYwhykM51-4" target="cPz8cNLMORRyYwhykM51-2">
          <mxGeometry width="160" relative="1" as="geometry">
            <mxPoint x="160" y="458" as="sourcePoint" />
            <mxPoint x="80" y="342" as="targetPoint" />
          </mxGeometry>
        </mxCell>
      </root>
    </mxGraphModel>
  </diagram>
</mxfile>
